<?xml version="1.0" encoding="UTF-8"?>
<svg xmlns="http://www.w3.org/2000/svg" xmlns:xlink="http://www.w3.org/1999/xlink" version="1.1" viewBox="0 0 5292.6 1734.9">
  <!-- Generator: Adobe Illustrator 29.0.0, SVG Export Plug-In . SVG Version: 2.1.0 Build 186)  -->
  <defs>
    <style>
      .st0, .st1 {
        fill: #1d1d1b;
      }

      .st2 {
        opacity: .4;
      }

      .st1 {
        stroke: #312783;
        stroke-miterlimit: 10;
      }

      .st3 {
        display: none;
      }
    </style>
  </defs>
  <g id="IMAGEN" class="st3">
    <image class="st2" width="700" height="700" transform="translate(4067.8 562.3)" xlink:href="iconomeditrack.png"/>
  </g>
  <g id="LOGO">
    <polygon class="st1" points="4153.3 1015.6 4190 1015.7 4190 1071.3 4246 1071.3 4246 1109.1 4152.6 1109.1 4153.3 1015.6"/>
    <path class="st1" d="M4678.9,600.6l-242.4-.6-.6,243.1h243.7l-.6-242.4ZM4641.9,806.1h-169.1l1.3-167.9h167.9v167.9Z"/>
    <path class="st1" d="M4395.4,600.5l-242.4-.6-.6,243.1h243.7l-.6-242.4ZM4358.4,805.9h-169.1l1.3-167.9h167.9v167.9Z"/>
    <path class="st1" d="M4678.7,882.6l-242.4-.6-.6,243.1h243.7l-.6-242.4ZM4641.8,1088.1h-169.1l1.3-167.9h167.9v167.9Z"/>
    <path class="st1" d="M4329.7,962.3c-3.7-9.8-9.2-16-10.6-17.5-7.5-8.2-15.5-11.7-19.2-13.2-9.4-4-17.9-4.6-23.1-4.6-5.6-.1-15.7.5-26.4,5.9-1.7.9-8.9,4.6-15.9,12.2-2.7,3-8.4,9.2-11.9,19.2-3.5,10-3,18.5-2.6,23.5,1,13.2,5.7,22.5,6.9,24.8,2.4,4.4,7.3,13.5,17.8,20.5,11.2,7.5,22.3,8.3,28.1,8.6,13.1.8,22.8-2.9,24.8-3.6,2.6-1,10.2-4.2,17.8-11.2,2.8-2.6,8.9-8.3,13.2-17.8,4.6-10.1,4.6-18.9,4.6-24.8,0-4.6,0-12.4-3.6-21.8ZM4290.7,1000.2c-8.4,7.4-19.5,4.1-20.3,3.9-1.2-.4-8.6-2.9-12.6-10.6-.8-1.5-3.4-6.8-1.9-13.5,1.6-7.6,7.3-11.6,8.7-12.6,9.3-6.2,19.9-1.9,20.8-1.5,2,1,7.1,3.7,10,9.6,3.8,7.8,2.5,18.4-4.7,24.7Z"/>
    <g>
      <path class="st0" d="M947.3,1048.3v-325.6c-4.1,9.3-6.7,16-10.9,24.8l-138.2,300.7h-36.2l-139.7-298.1c-3.1-6.2-6.2-14-10.4-27.4v325.6h-33.1v-365.4h46.6l138.7,296.1c6.7,14,11.4,23.8,16.6,38.8l153.7-334.9h45.5v365.4h-32.6Z"/>
      <path class="st0" d="M1064.8,1048.3v-365.4h349.9v30h-314.2v128.4h290.4v31.1h-290.4v145.4h329.2v30.5h-364.9Z"/>
      <path class="st0" d="M1862.4,923.6c-12.4,46.1-41.9,85.9-85.9,106.1-37.3,17.1-75.6,18.6-114.9,18.6h-165.6v-365.4h182.7c10.9,0,21.7,0,32.6,1,36.2,2.6,67.3,12.9,96.3,36.7,59,48.7,62.1,123.2,62.1,146s-.5,32.1-7.2,56.9ZM1745.4,723.3c-23.8-8.8-41.9-10.4-66.8-10.4h-146.5v304.9h116.5c49.2,0,104.6-1,142.9-37.3,19.7-18.6,41.4-51.8,41.4-111.8s-25.9-122.7-87.5-145.4Z"/>
      <path class="st0" d="M1937.4,1048.3v-365.4h34.7v365.4h-34.7Z"/>
      <path class="st0" d="M2211.7,712.9v335.4h-34.7v-335.4h-164.1v-30h355.6v30h-156.8Z"/>
      <path class="st0" d="M2759.3,1048.3l-144.4-163h-167.2v163h-35.2v-365.4h252.6c8.8,0,17.6,0,26.4.5,15,.5,58,2.6,83.8,41.9,15,22.8,16,48.1,16,58,0,14.5-2.6,52.8-37.3,78.7-27.4,20.2-60.6,21.7-92.6,23.3l147,163h-49.2ZM2725.2,724.8c-18.1-11.9-38.3-11.9-59-11.9h-218.4v141.3h196.2c8.3,0,16,0,24.3-.5,30.5-1.6,61.1-6.7,76.6-37.3,2.6-5.2,8.3-18.6,8.3-35.2s-2.6-39.3-27.9-56.4Z"/>
      <path class="st0" d="M3191.5,1048.3l-47.1-94.7h-235.5l-46.6,94.7h-36.7l180.1-365.4h39.3l184.3,365.4h-37.8ZM3025.4,715.5l-102.5,209.1h207l-104.6-209.1Z"/>
      <path class="st0" d="M3568.9,1016.2c-23.3,17.1-64.2,41.4-133.5,41.4s-105.1-20.7-127.8-37.3c-49.7-36.7-77.6-93.7-77.6-156.3s3.1-72.5,42.4-119.6c55.9-67.3,134.6-73,163.6-73s90.1,4.1,142.9,52.3c16.6,15,26.4,29.5,38.3,48.1l-31.1,17.1c-3.1-5.2-13.5-23.8-28.5-38.8-42.4-43.5-102.5-46.1-120.6-46.1s-79.7,3.6-124.2,49.2c-40.4,41.4-44,94.2-44,113.4s3.6,70.4,45.6,111.8c44.5,44.5,103,47.1,123.2,47.1s85.9-3.6,133.5-57.5c7.8-8.8,12.4-14.5,23.8-33.1l31.6,15c-8.8,15-23.3,40.9-57.5,66.3Z"/>
      <path class="st0" d="M3998.5,1048.3l-163-202.4-121.1,98.3v104h-34.7v-365.4h34.7v222l273.3-222h48.1l-172.9,140.8,181.7,224.6h-46.1Z"/>
    </g>
  </g>
</svg>