<?xml version="1.0" encoding="UTF-8"?>
<svg xmlns="http://www.w3.org/2000/svg" xmlns:xlink="http://www.w3.org/1999/xlink" version="1.1" viewBox="0 0 729.7 726.5">
  <!-- Generator: Adobe Illustrator 29.0.0, SVG Export Plug-In . SVG Version: 2.1.0 Build 186)  -->
  <defs>
    <style>
      .st0 {
        opacity: .4;
      }

      .st1 {
        fill: #1d1d1b;
        stroke: #312783;
        stroke-miterlimit: 10;
      }

      .st2 {
        display: none;
      }
    </style>
  </defs>
  <g id="IMAGEN" class="st2">
    <image class="st0" width="700" height="700" transform="translate(18.4 66.4)" xlink:href="iconomeditrack.png"/>
  </g>
  <g id="LOGO">
    <polygon class="st1" points="103.9 519.7 140.6 519.8 140.6 575.4 196.5 575.4 196.5 613.2 103.2 613.2 103.9 519.7"/>
    <path class="st1" d="M629.5,104.7l-242.4-.6-.6,243.1h243.7l-.6-242.4ZM592.5,310.2h-169.1l1.3-167.9h167.9v167.9Z"/>
    <path class="st1" d="M346,104.5l-242.4-.6-.6,243.1h243.7l-.6-242.4ZM309,310h-169.1l1.3-167.9h167.9v167.9Z"/>
    <path class="st1" d="M629.3,386.7l-242.4-.6-.6,243.1h243.7l-.6-242.4ZM592.4,592.1h-169.1l1.3-167.9h167.9v167.9Z"/>
    <path class="st1" d="M280.3,466.3c-3.7-9.8-9.2-16-10.6-17.5-7.5-8.2-15.5-11.7-19.2-13.2-9.4-4-17.9-4.6-23.1-4.6-5.6-.1-15.7.5-26.4,5.9-1.7.9-8.9,4.6-15.9,12.2-2.7,3-8.4,9.2-11.9,19.2-3.5,10-3,18.5-2.6,23.5,1,13.2,5.7,22.5,6.9,24.8,2.4,4.4,7.3,13.5,17.8,20.5,11.2,7.5,22.3,8.3,28.1,8.6,13.1.8,22.8-2.9,24.8-3.6,2.6-1,10.2-4.2,17.8-11.2,2.8-2.6,8.9-8.3,13.2-17.8,4.6-10.1,4.6-18.9,4.6-24.8,0-4.6,0-12.4-3.6-21.8ZM241.3,504.3c-8.4,7.4-19.5,4.1-20.3,3.9-1.2-.4-8.6-2.9-12.6-10.6-.8-1.5-3.4-6.8-1.9-13.5,1.6-7.6,7.3-11.6,8.7-12.6,9.3-6.2,19.9-1.9,20.8-1.5,2,1,7.1,3.7,10,9.6,3.8,7.8,2.5,18.4-4.7,24.7Z"/>
  </g>
</svg>